<svg xmlns="http://www.w3.org/2000/svg" xmlns:xlink="http://www.w3.org/1999/xlink" width="2268" zoomAndPan="magnify" viewBox="0 0 1700.88 1190.250009" height="1587" preserveAspectRatio="xMidYMid meet" version="1.0"><defs><clipPath id="e23b805c6c"><path d="M 767 328 L 1008.3125 328 L 1008.3125 709 L 767 709 Z M 767 328 " clip-rule="nonzero"/></clipPath><clipPath id="2d4158ae2b"><path d="M 758 327.945312 L 1000 327.945312 L 1000 709 L 758 709 Z M 758 327.945312 " clip-rule="nonzero"/></clipPath><clipPath id="e6ddbf911e"><path d="M 637 486 L 809 486 L 809 758.921875 L 637 758.921875 Z M 637 486 " clip-rule="nonzero"/></clipPath><clipPath id="c1dfc9f72d"><path d="M 636 486 L 810 486 L 810 758.921875 L 636 758.921875 Z M 636 486 " clip-rule="nonzero"/></clipPath><clipPath id="fbbd1e9c3d"><path d="M 631 486 L 802 486 L 802 758.921875 L 631 758.921875 Z M 631 486 " clip-rule="nonzero"/></clipPath><clipPath id="53223ba009"><path d="M 629.800781 486 L 804 486 L 804 758.921875 L 629.800781 758.921875 Z M 629.800781 486 " clip-rule="nonzero"/></clipPath></defs><path fill="#000000" d="M 888.121094 328.226562 C 890.328125 362.519531 890.878906 397.324219 895.703125 431.5 C 902.285156 477.675781 914.222656 502.964844 962.925781 511.886719 C 974.039062 514.148438 985.296875 515.507812 996.523438 516.96875 C 1000.03125 517.300781 1003.535156 517.78125 1007.046875 518.125 C 1007.15625 518.144531 1007.238281 518.203125 1007.292969 518.300781 C 1007.347656 518.402344 1007.355469 518.503906 1007.3125 518.609375 C 1004.550781 519.394531 1001.394531 519.234375 998.511719 519.789062 C 970.183594 523.695312 932.925781 525.769531 914.140625 550.273438 C 896.769531 574.375 895.324219 607.960938 892.355469 636.765625 C 890.292969 660.667969 889.597656 684.753906 888.195312 708.648438 C 886.429688 685.808594 886.171875 662.296875 884.09375 639.28125 C 881.257812 610.644531 880.027344 579.472656 864.933594 554.347656 C 847.035156 526.070312 809.222656 524.277344 779.332031 519.914062 C 777.542969 519.785156 775.753906 519.496094 773.96875 519.277344 C 772.25 519.074219 770.511719 519.027344 768.8125 518.699219 C 768.769531 518.699219 768.703125 518.550781 768.699219 518.46875 C 768.699219 518.382812 768.726562 518.304688 768.78125 518.242188 C 768.839844 518.175781 768.910156 518.136719 768.996094 518.128906 C 771.101562 517.898438 773.207031 517.683594 775.3125 517.425781 C 782.398438 516.636719 789.476562 515.761719 796.550781 514.722656 C 825.328125 510.644531 856.976562 503.929688 869.574219 474.128906 C 879.4375 451.664062 881.421875 426.292969 883.777344 402.03125 C 885.929688 377.503906 886.519531 352.671875 888.121094 328.226562 Z M 888.121094 328.226562 " fill-opacity="1" fill-rule="nonzero"/><g clip-path="url(#e23b805c6c)"><path fill="#000000" d="M 887.035156 708.734375 C 886.234375 698.335938 885.734375 687.613281 885.253906 677.246094 C 884.671875 664.789062 884.070312 651.910156 882.941406 639.378906 C 882.621094 636.144531 882.316406 632.808594 882.019531 629.578125 C 879.648438 603.730469 877.191406 577.003906 863.949219 554.9375 C 848.300781 530.261719 816.976562 526.117188 789.332031 522.453125 C 785.816406 521.992188 782.496094 521.546875 779.203125 521.066406 C 777.933594 520.972656 776.660156 520.800781 775.4375 520.636719 C 774.898438 520.566406 774.359375 520.492188 773.820312 520.425781 C 773.222656 520.355469 772.597656 520.300781 771.996094 520.25 C 770.855469 520.167969 769.71875 520.03125 768.59375 519.835938 L 768.554688 519.835938 C 768.257812 519.75 768.015625 519.589844 767.828125 519.347656 C 767.640625 519.101562 767.546875 518.828125 767.539062 518.523438 L 767.539062 518.433594 C 767.542969 518.25 767.578125 518.074219 767.648438 517.90625 C 767.71875 517.734375 767.8125 517.582031 767.9375 517.449219 C 768.0625 517.316406 768.207031 517.207031 768.371094 517.128906 C 768.535156 517.046875 768.710938 517 768.894531 516.984375 L 769.558594 516.914062 C 771.40625 516.71875 773.300781 516.515625 775.164062 516.285156 C 782.964844 515.421875 789.894531 514.539062 796.375 513.585938 C 824.820312 509.554688 856.191406 502.816406 868.496094 473.6875 C 877.753906 452.601562 880.027344 428.855469 882.230469 405.902344 C 882.359375 404.574219 882.484375 403.246094 882.613281 401.921875 C 883.925781 387.070312 884.671875 371.855469 885.386719 357.144531 C 885.847656 347.621094 886.335938 337.777344 886.964844 328.15625 L 889.277344 328.15625 C 889.894531 337.789062 890.390625 347.621094 890.871094 357.132812 C 892.109375 381.554688 893.386719 406.804688 896.851562 431.34375 C 903.382812 477.15625 915.425781 502.019531 963.136719 510.753906 C 973.121094 512.789062 983.378906 514.109375 993.300781 515.375 L 996.65625 515.808594 C 998.503906 515.984375 1000.351562 516.203125 1002.152344 516.414062 C 1003.796875 516.605469 1005.496094 516.800781 1007.160156 516.964844 L 1007.269531 516.984375 C 1007.777344 517.085938 1008.144531 517.375 1008.367188 517.84375 C 1008.578125 518.289062 1008.566406 518.726562 1008.324219 519.15625 L 1008.09375 519.578125 L 1007.632812 519.710938 C 1005.949219 520.191406 1004.167969 520.339844 1002.417969 520.484375 C 1001.179688 520.5625 999.945312 520.707031 998.722656 520.917969 L 998.660156 520.917969 C 995.636719 521.335938 992.566406 521.726562 989.320312 522.136719 C 962.238281 525.566406 931.546875 529.449219 915.058594 550.949219 C 899.714844 572.25 896.894531 601.652344 894.410156 627.59375 C 894.113281 630.65625 893.8125 633.832031 893.496094 636.867188 C 892.148438 652.511719 891.371094 668.511719 890.621094 683.984375 C 890.226562 692.09375 889.820312 700.480469 889.335938 708.710938 Z M 776.519531 518.453125 C 777.480469 518.578125 778.457031 518.699219 779.410156 518.765625 L 779.492188 518.765625 C 782.789062 519.246094 786.113281 519.6875 789.636719 520.152344 C 817.796875 523.890625 849.6875 528.117188 865.90625 553.726562 L 865.921875 553.75 C 879.441406 576.257812 881.921875 603.261719 884.316406 629.371094 C 884.613281 632.605469 884.921875 635.929688 885.242188 639.160156 C 886.378906 651.753906 886.980469 664.660156 887.550781 677.140625 C 887.726562 680.859375 887.902344 684.625 888.09375 688.402344 C 888.167969 686.890625 888.242188 685.386719 888.324219 683.890625 C 889.074219 668.390625 889.855469 652.367188 891.207031 636.664062 C 891.523438 633.605469 891.8125 630.585938 892.121094 627.386719 C 894.636719 601.148438 897.488281 571.40625 913.207031 549.597656 L 913.226562 549.570312 C 920.851562 539.617188 932.097656 532.429688 947.589844 527.59375 C 961.003906 523.398438 975.898438 521.519531 989.035156 519.859375 C 992.269531 519.449219 995.320312 519.058594 998.324219 518.648438 C 998.742188 518.566406 999.164062 518.503906 999.589844 518.445312 C 998.53125 518.328125 997.46875 518.214844 996.414062 518.113281 L 996.375 518.113281 L 993.003906 517.675781 C 983.039062 516.394531 972.738281 515.066406 962.695312 513.023438 C 913.625 504.03125 901.246094 478.570312 894.5625 431.65625 C 891.082031 407.015625 889.800781 381.710938 888.554688 357.246094 C 888.40625 354.398438 888.261719 351.523438 888.113281 348.628906 C 887.960938 351.519531 887.816406 354.394531 887.6875 357.253906 C 886.964844 371.988281 886.21875 387.226562 884.914062 402.128906 C 884.785156 403.460938 884.660156 404.789062 884.53125 406.117188 C 882.3125 429.257812 880.019531 453.1875 870.617188 474.597656 C 864.820312 488.324219 854.671875 498.316406 839.597656 505.128906 C 826.390625 511.097656 811.175781 513.820312 796.707031 515.867188 C 790.507812 516.777344 783.894531 517.621094 776.519531 518.453125 Z M 776.519531 518.453125 " fill-opacity="1" fill-rule="nonzero"/></g><path fill="#db5275" d="M 879.269531 328.011719 C 881.472656 362.304688 882.023438 397.105469 886.851562 431.28125 C 893.433594 477.457031 905.367188 502.75 954.074219 511.667969 C 965.1875 513.929688 976.445312 515.289062 987.667969 516.75 C 991.179688 517.085938 994.679688 517.566406 998.191406 517.90625 C 998.367188 517.941406 998.582031 518.167969 998.457031 518.390625 C 995.699219 519.175781 992.542969 519.019531 989.660156 519.574219 C 961.328125 523.476562 924.070312 525.554688 905.285156 550.054688 C 887.914062 574.160156 886.472656 607.746094 883.5 636.546875 C 881.4375 660.453125 880.746094 684.535156 879.339844 708.433594 C 877.582031 685.59375 877.320312 662.078125 875.246094 639.0625 C 872.40625 610.429688 871.175781 579.257812 856.085938 554.128906 C 838.183594 525.855469 800.371094 524.0625 770.480469 519.699219 C 768.691406 519.570312 766.902344 519.28125 765.113281 519.0625 C 763.398438 518.855469 761.660156 518.808594 759.960938 518.484375 C 759.914062 518.472656 759.851562 518.335938 759.847656 518.25 C 759.84375 518.164062 759.871094 518.089844 759.929688 518.023438 C 759.988281 517.957031 760.058594 517.921875 760.144531 517.910156 C 762.25 517.679688 764.355469 517.46875 766.460938 517.21875 C 773.546875 516.433594 780.625 515.554688 787.695312 514.515625 C 816.476562 510.441406 848.125 503.726562 860.71875 473.925781 C 870.585938 451.460938 872.574219 426.089844 874.925781 401.828125 C 877.085938 377.289062 877.675781 352.453125 879.269531 328.011719 Z M 879.269531 328.011719 " fill-opacity="1" fill-rule="nonzero"/><g clip-path="url(#2d4158ae2b)"><path fill="#000000" d="M 878.191406 708.519531 C 877.390625 698.121094 876.890625 687.398438 876.40625 677.03125 C 875.828125 664.574219 875.226562 651.695312 874.097656 639.164062 C 873.773438 635.929688 873.46875 632.59375 873.171875 629.363281 C 870.796875 603.515625 868.347656 576.789062 855.101562 554.722656 C 839.46875 530.046875 808.132812 525.898438 780.488281 522.246094 C 776.972656 521.78125 773.652344 521.339844 770.359375 520.859375 C 769.089844 520.761719 767.816406 520.59375 766.59375 520.429688 C 766.054688 520.355469 765.515625 520.28125 764.976562 520.21875 C 764.378906 520.148438 763.753906 520.09375 763.152344 520.039062 C 762.011719 519.960938 760.875 519.824219 759.746094 519.625 L 759.707031 519.625 C 759.410156 519.542969 759.171875 519.378906 758.984375 519.136719 C 758.796875 518.894531 758.703125 518.621094 758.695312 518.3125 L 758.695312 518.226562 C 758.699219 518.042969 758.734375 517.867188 758.804688 517.699219 C 758.871094 517.527344 758.96875 517.375 759.09375 517.242188 C 759.21875 517.109375 759.363281 517 759.527344 516.921875 C 759.691406 516.839844 759.863281 516.792969 760.046875 516.777344 L 760.71875 516.699219 C 762.566406 516.503906 764.457031 516.300781 766.324219 516.070312 C 774.121094 515.195312 781.054688 514.3125 787.523438 513.363281 C 815.96875 509.332031 847.339844 502.59375 859.644531 473.464844 C 868.902344 452.378906 871.175781 428.632812 873.378906 405.679688 C 873.507812 404.347656 873.632812 403.019531 873.761719 401.699219 C 875.074219 386.847656 875.816406 371.632812 876.535156 356.917969 C 876.996094 347.398438 877.480469 337.554688 878.113281 327.933594 L 880.421875 327.933594 C 881.042969 337.5625 881.539062 347.398438 882.019531 356.90625 C 883.257812 381.328125 884.53125 406.578125 888 431.117188 C 894.527344 476.929688 906.570312 501.792969 954.285156 510.527344 C 964.265625 512.5625 974.523438 513.882812 984.449219 515.160156 L 987.800781 515.59375 C 989.648438 515.769531 991.5 515.988281 993.296875 516.195312 C 994.941406 516.390625 996.640625 516.585938 998.308594 516.753906 L 998.414062 516.769531 C 998.925781 516.875 999.289062 517.164062 999.515625 517.632812 C 999.726562 518.074219 999.710938 518.511719 999.472656 518.941406 L 999.242188 519.363281 L 998.78125 519.496094 C 997.09375 519.976562 995.300781 520.125 993.5625 520.269531 C 992.328125 520.347656 991.101562 520.492188 989.878906 520.703125 L 989.820312 520.703125 C 986.792969 521.121094 983.726562 521.511719 980.476562 521.921875 C 953.402344 525.351562 922.707031 529.238281 906.21875 550.734375 C 890.871094 572.035156 888.054688 601.4375 885.566406 627.382812 C 885.273438 630.441406 884.96875 633.621094 884.644531 636.652344 C 883.292969 652.296875 882.515625 668.296875 881.765625 683.769531 C 881.371094 691.878906 880.964844 700.265625 880.484375 708.496094 Z M 767.675781 518.234375 C 768.636719 518.363281 769.613281 518.480469 770.566406 518.550781 L 770.648438 518.550781 C 773.941406 519.03125 777.269531 519.472656 780.789062 519.9375 C 808.941406 523.664062 840.851562 527.894531 857.0625 553.5 L 857.074219 553.523438 C 870.597656 576.03125 873.078125 603.035156 875.472656 629.144531 C 875.769531 632.367188 876.074219 635.703125 876.398438 638.9375 C 877.535156 651.527344 878.136719 664.433594 878.707031 676.914062 C 878.882812 680.632812 879.058594 684.398438 879.25 688.175781 C 879.324219 686.664062 879.398438 685.160156 879.480469 683.664062 C 880.230469 668.164062 881.007812 652.140625 882.363281 636.4375 C 882.679688 633.382812 882.96875 630.359375 883.273438 627.160156 C 885.792969 600.921875 888.644531 571.183594 904.363281 549.371094 L 904.382812 549.34375 C 912.007812 539.40625 923.25 532.203125 938.746094 527.371094 C 952.164062 523.179688 967.054688 521.296875 980.195312 519.632812 C 983.429688 519.222656 986.480469 518.832031 989.484375 518.421875 C 989.902344 518.339844 990.328125 518.277344 990.75 518.222656 C 989.691406 518.101562 988.628906 517.992188 987.574219 517.886719 L 987.535156 517.886719 L 984.164062 517.453125 C 974.199219 516.167969 963.898438 514.839844 953.855469 512.796875 C 904.785156 503.808594 892.40625 478.347656 885.722656 431.453125 C 882.242188 406.808594 880.960938 381.503906 879.714844 357.042969 C 879.570312 354.191406 879.425781 351.320312 879.273438 348.421875 C 879.128906 351.320312 878.988281 354.191406 878.847656 357.046875 C 878.128906 371.78125 877.382812 387.019531 876.078125 401.921875 C 875.945312 403.257812 875.820312 404.582031 875.691406 405.914062 C 873.472656 429.054688 871.179688 452.980469 861.777344 474.394531 C 855.980469 488.121094 845.832031 498.109375 830.761719 504.921875 C 817.554688 510.894531 802.339844 513.613281 787.871094 515.664062 C 781.664062 516.558594 775.046875 517.40625 767.675781 518.234375 Z M 767.675781 518.234375 " fill-opacity="1" fill-rule="nonzero"/></g><g clip-path="url(#e6ddbf911e)"><path fill="#000000" d="M 722.894531 486.523438 C 724.476562 511.085938 724.867188 536.011719 728.328125 560.492188 C 733.042969 593.566406 741.589844 611.679688 776.476562 618.066406 C 784.433594 619.6875 792.5 620.664062 800.539062 621.707031 C 803.050781 621.9375 805.558594 622.289062 808.074219 622.539062 C 808.15625 622.550781 808.214844 622.59375 808.253906 622.664062 C 808.292969 622.734375 808.296875 622.808594 808.265625 622.882812 C 806.289062 623.445312 804.027344 623.34375 801.960938 623.730469 C 781.667969 626.527344 754.984375 628.015625 741.53125 645.5625 C 729.089844 662.824219 728.054688 686.882812 725.925781 707.511719 C 724.449219 724.632812 723.949219 741.886719 722.941406 759 C 721.679688 742.640625 721.496094 725.800781 720.007812 709.316406 C 717.972656 688.808594 717.09375 666.480469 706.285156 648.484375 C 693.464844 628.230469 666.378906 626.945312 644.96875 623.824219 C 643.6875 623.730469 642.410156 623.527344 641.128906 623.363281 C 639.898438 623.214844 638.652344 623.179688 637.429688 622.945312 C 637.394531 622.945312 637.351562 622.839844 637.347656 622.78125 C 637.339844 622.628906 637.410156 622.546875 637.5625 622.535156 C 639.070312 622.375 640.566406 622.21875 642.082031 622.03125 C 647.167969 621.46875 652.230469 620.839844 657.296875 620.097656 C 677.910156 617.175781 700.578125 612.367188 709.59375 591.023438 C 716.65625 574.929688 718.082031 556.765625 719.761719 539.378906 C 721.324219 521.816406 721.746094 504.03125 722.894531 486.523438 Z M 722.894531 486.523438 " fill-opacity="1" fill-rule="nonzero"/></g><g clip-path="url(#c1dfc9f72d)"><path fill="#000000" d="M 722.105469 759.066406 C 721.53125 751.617188 721.179688 743.9375 720.828125 736.511719 C 720.410156 727.589844 719.980469 718.363281 719.167969 709.390625 C 718.9375 707.078125 718.722656 704.683594 718.507812 702.371094 C 716.808594 683.855469 715.042969 664.703125 705.566406 648.914062 C 694.386719 631.246094 671.9375 628.273438 652.136719 625.652344 C 649.621094 625.316406 647.242188 625.003906 644.882812 624.660156 C 643.976562 624.589844 643.066406 624.46875 642.1875 624.351562 C 641.800781 624.300781 641.414062 624.246094 641.03125 624.203125 C 640.605469 624.148438 640.15625 624.109375 639.726562 624.074219 C 638.90625 624.015625 638.09375 623.917969 637.285156 623.777344 L 637.261719 623.777344 C 637.046875 623.714844 636.871094 623.597656 636.734375 623.421875 C 636.597656 623.246094 636.527344 623.046875 636.523438 622.824219 L 636.523438 622.757812 C 636.527344 622.484375 636.621094 622.246094 636.808594 622.046875 C 636.996094 621.84375 637.230469 621.730469 637.503906 621.707031 L 637.984375 621.65625 C 639.300781 621.515625 640.660156 621.371094 641.996094 621.195312 C 647.582031 620.574219 652.546875 619.945312 657.1875 619.261719 C 677.558594 616.375 700.019531 611.550781 708.832031 590.691406 C 715.460938 575.589844 717.09375 558.589844 718.667969 542.144531 C 718.761719 541.191406 718.851562 540.242188 718.941406 539.292969 C 719.882812 528.664062 720.417969 517.761719 720.933594 507.222656 C 721.265625 500.402344 721.613281 493.355469 722.0625 486.460938 L 723.746094 486.460938 C 724.1875 493.359375 724.542969 500.402344 724.890625 507.214844 C 725.773438 524.703125 726.6875 542.800781 729.171875 560.363281 C 733.847656 593.179688 742.472656 610.972656 776.636719 617.230469 C 783.785156 618.6875 791.136719 619.636719 798.242188 620.550781 L 800.644531 620.859375 C 801.960938 620.988281 803.292969 621.140625 804.574219 621.292969 C 805.75 621.429688 806.96875 621.574219 808.160156 621.691406 L 808.238281 621.691406 C 808.609375 621.769531 808.875 621.976562 809.035156 622.316406 C 809.1875 622.640625 809.179688 622.957031 809.007812 623.265625 L 808.839844 623.574219 L 808.5 623.671875 C 807.292969 624.015625 806.007812 624.132812 804.761719 624.226562 C 803.878906 624.28125 803 624.386719 802.125 624.535156 L 802.082031 624.535156 C 799.914062 624.835938 797.714844 625.113281 795.378906 625.410156 C 775.988281 627.863281 754.015625 630.648438 742.199219 646.039062 C 731.210938 661.289062 729.191406 682.351562 727.410156 700.933594 C 727.199219 703.125 726.984375 705.390625 726.757812 707.574219 C 725.789062 718.777344 725.234375 730.242188 724.695312 741.324219 C 724.414062 747.132812 724.121094 753.136719 723.769531 759.023438 Z M 643.070312 622.769531 C 643.722656 622.855469 644.382812 622.933594 645.03125 622.980469 L 645.089844 622.980469 C 647.449219 623.324219 649.832031 623.640625 652.355469 623.972656 C 672.523438 626.644531 695.378906 629.671875 706.996094 648.019531 C 716.703125 664.160156 718.46875 683.503906 720.183594 702.207031 C 720.394531 704.515625 720.613281 706.902344 720.84375 709.21875 C 721.65625 718.230469 722.089844 727.476562 722.507812 736.421875 C 722.625 739 722.738281 741.605469 722.878906 744.222656 C 722.925781 743.230469 722.976562 742.242188 723.023438 741.257812 C 723.5625 730.164062 724.121094 718.679688 725.089844 707.429688 C 725.320312 705.238281 725.523438 703.078125 725.742188 700.785156 C 727.542969 681.988281 729.585938 660.683594 740.847656 645.0625 L 740.863281 645.039062 C 746.328125 637.910156 754.382812 632.761719 765.480469 629.296875 C 775.09375 626.292969 785.761719 624.949219 795.175781 623.75 C 797.484375 623.457031 799.671875 623.179688 801.828125 622.882812 C 802.089844 622.832031 802.359375 622.792969 802.628906 622.753906 C 801.902344 622.671875 801.179688 622.59375 800.460938 622.523438 L 800.429688 622.523438 L 798.015625 622.210938 C 790.878906 621.289062 783.5 620.34375 776.304688 618.875 C 741.152344 612.453125 732.296875 594.214844 727.496094 560.605469 C 725.003906 542.953125 724.085938 524.832031 723.199219 507.304688 C 723.101562 505.347656 723 503.375 722.898438 501.386719 C 722.796875 503.371094 722.699219 505.351562 722.601562 507.308594 C 722.089844 517.859375 721.554688 528.773438 720.609375 539.453125 C 720.519531 540.40625 720.425781 541.355469 720.335938 542.308594 C 718.746094 558.882812 717.101562 576.023438 710.371094 591.359375 C 701.222656 613.015625 678.25 617.976562 657.421875 620.941406 C 653.011719 621.582031 648.304688 622.183594 643.070312 622.769531 Z M 643.070312 622.769531 " fill-opacity="1" fill-rule="nonzero"/></g><g clip-path="url(#fbbd1e9c3d)"><path fill="#f4deb3" d="M 716.558594 486.367188 C 718.136719 510.929688 718.535156 535.855469 721.992188 560.335938 C 726.707031 593.421875 735.253906 611.527344 770.140625 617.914062 C 778.097656 619.53125 786.164062 620.507812 794.203125 621.554688 C 796.714844 621.785156 799.226562 622.136719 801.738281 622.382812 C 801.863281 622.40625 802.019531 622.566406 801.929688 622.730469 C 799.953125 623.292969 797.691406 623.191406 795.628906 623.578125 C 775.335938 626.367188 748.652344 627.851562 735.195312 645.414062 C 722.753906 662.675781 721.71875 686.734375 719.59375 707.367188 C 718.117188 724.488281 717.617188 741.734375 716.609375 758.851562 C 715.34375 742.492188 715.164062 725.652344 713.671875 709.167969 C 711.640625 688.660156 710.761719 666.332031 699.949219 648.332031 C 687.128906 628.082031 660.042969 626.796875 638.636719 623.675781 C 637.355469 623.585938 636.070312 623.375 634.792969 623.214844 C 633.5625 623.066406 632.320312 623.03125 631.09375 622.796875 C 631.0625 622.796875 631.015625 622.691406 631.011719 622.632812 C 631.003906 622.480469 631.074219 622.398438 631.226562 622.386719 C 632.734375 622.226562 634.242188 622.070312 635.75 621.882812 C 640.832031 621.320312 645.894531 620.691406 650.960938 619.949219 C 671.570312 617.027344 694.242188 612.21875 703.257812 590.875 C 710.324219 574.78125 711.746094 556.617188 713.425781 539.230469 C 714.988281 521.664062 715.410156 503.878906 716.558594 486.367188 Z M 716.558594 486.367188 " fill-opacity="1" fill-rule="nonzero"/></g><g clip-path="url(#53223ba009)"><path fill="#000000" d="M 715.457031 758.933594 C 714.878906 751.480469 714.53125 743.800781 714.179688 736.371094 C 713.761719 727.453125 713.332031 718.230469 712.519531 709.261719 C 712.289062 706.953125 712.074219 704.558594 711.859375 702.246094 C 710.164062 683.757812 708.410156 664.664062 698.964844 648.933594 C 687.847656 631.382812 665.484375 628.421875 645.757812 625.808594 C 643.242188 625.472656 640.867188 625.160156 638.511719 624.816406 C 637.597656 624.75 636.6875 624.625 635.808594 624.507812 C 635.421875 624.457031 635.035156 624.40625 634.652344 624.359375 C 634.234375 624.308594 633.808594 624.269531 633.359375 624.230469 C 632.53125 624.171875 631.707031 624.074219 630.886719 623.929688 L 630.847656 623.929688 C 630.5625 623.855469 630.328125 623.703125 630.148438 623.472656 C 629.96875 623.238281 629.875 622.976562 629.871094 622.683594 L 629.871094 622.59375 C 629.871094 622.425781 629.90625 622.257812 629.972656 622.101562 C 630.035156 621.941406 630.125 621.800781 630.242188 621.675781 C 630.359375 621.550781 630.496094 621.449219 630.648438 621.375 C 630.804688 621.300781 630.964844 621.253906 631.136719 621.242188 L 631.597656 621.191406 C 632.921875 621.054688 634.289062 620.90625 635.628906 620.730469 C 641.210938 620.109375 646.175781 619.480469 650.8125 618.796875 C 671.097656 615.921875 693.46875 611.125 702.214844 590.417969 C 708.824219 575.359375 710.453125 558.378906 712.027344 541.960938 C 712.121094 541.007812 712.210938 540.058594 712.300781 539.109375 C 713.242188 528.480469 713.773438 517.589844 714.289062 507.054688 C 714.625 500.234375 714.96875 493.191406 715.421875 486.289062 L 717.730469 486.289062 C 718.175781 493.183594 718.53125 500.230469 718.886719 507.042969 C 719.769531 524.527344 720.683594 542.605469 723.167969 560.167969 C 727.820312 592.828125 736.398438 610.546875 770.378906 616.769531 C 777.523438 618.226562 784.863281 619.171875 791.964844 620.085938 L 794.363281 620.394531 C 795.679688 620.519531 797.015625 620.675781 798.292969 620.828125 C 799.464844 620.964844 800.679688 621.105469 801.871094 621.226562 L 801.976562 621.242188 C 802.453125 621.335938 802.792969 621.605469 803 622.039062 C 803.199219 622.460938 803.1875 622.871094 802.960938 623.277344 L 802.730469 623.699219 L 802.269531 623.832031 C 801.03125 624.183594 799.726562 624.292969 798.46875 624.394531 C 797.589844 624.453125 796.714844 624.558594 795.84375 624.710938 L 795.785156 624.710938 C 793.613281 625.007812 791.417969 625.289062 789.082031 625.582031 C 769.753906 628.03125 747.847656 630.804688 736.113281 646.085938 C 725.179688 661.273438 723.175781 682.285156 721.386719 700.824219 C 721.175781 703.015625 720.960938 705.285156 720.734375 707.46875 C 719.769531 718.660156 719.214844 730.113281 718.675781 741.207031 C 718.394531 747.015625 718.101562 753.019531 717.75 758.910156 Z M 639.46875 622.621094 C 641.609375 622.929688 643.777344 623.214844 646.058594 623.515625 C 666.296875 626.199219 689.230469 629.238281 700.925781 647.707031 L 700.9375 647.730469 C 710.664062 663.90625 712.441406 683.296875 714.160156 702.035156 C 714.375 704.347656 714.59375 706.730469 714.824219 709.046875 C 715.636719 718.074219 716.066406 727.320312 716.488281 736.265625 C 716.503906 736.699219 716.527344 737.132812 716.546875 737.5625 C 717.035156 727.570312 717.574219 717.324219 718.441406 707.261719 C 718.671875 705.070312 718.875 702.90625 719.09375 700.613281 C 720.898438 681.777344 722.949219 660.429688 734.257812 644.734375 L 734.277344 644.707031 C 739.785156 637.527344 747.890625 632.339844 759.054688 628.855469 C 768.691406 625.851562 779.375 624.496094 788.796875 623.308594 C 790.511719 623.09375 792.160156 622.882812 793.769531 622.671875 L 791.640625 622.394531 C 784.5 621.472656 777.113281 620.523438 769.917969 619.058594 C 752.777344 615.917969 741.304688 609.8125 733.835938 599.835938 C 727.363281 591.203125 723.605469 579.808594 720.855469 560.511719 C 718.375 542.964844 717.453125 524.957031 716.574219 507.53125 C 716.0625 517.980469 715.53125 528.773438 714.597656 539.339844 C 714.503906 540.296875 714.410156 541.246094 714.320312 542.199219 C 712.730469 558.796875 711.085938 575.964844 704.328125 591.347656 C 695.121094 613.152344 672.042969 618.140625 651.136719 621.101562 C 647.484375 621.625 643.644531 622.128906 639.46875 622.621094 Z M 639.46875 622.621094 " fill-opacity="1" fill-rule="nonzero"/></g></svg>